<svg height='100px' width='100px'  fill="#000000" xmlns="http://www.w3.org/2000/svg" xmlns:xlink="http://www.w3.org/1999/xlink" version="1.1" x="0px" y="0px" viewBox="0 0 64 64" style="enable-background:new 0 0 64 64;" xml:space="preserve"><g><path d="M59.335,3.803c-2.327-2.083-5.455-3.077-8.586-2.733c-4.915,0.544-8.97,4.487-9.642,9.375   c-0.617,4.479,1.501,8.828,5.395,11.079C46.809,21.701,47,22.028,47,22.376V26c0,2.414,1.721,4.434,4,4.899V43c0,0.551-0.449,1-1,1   s-1-0.449-1-1V33h-4v2h2v8c0,1.654,1.346,3,3,3s3-1.346,3-3V30.899c2.279-0.465,4-2.484,4-4.899v-3.619   c0-0.356,0.191-0.68,0.511-0.865C60.896,19.552,63,15.906,63,12C63,8.876,61.664,5.888,59.335,3.803z M49,23h6v2h-6V23z M49,14h-1   c-0.551,0-1-0.449-1-1s0.449-1,1-1s1,0.449,1,1V14z M53,21h-2v-5h2V21z M52,29c-1.302,0-2.402-0.839-2.816-2h5.631   C54.402,28.161,53.302,29,52,29z M56.507,19.786c-0.501,0.291-0.888,0.719-1.149,1.214H55v-5h1c1.654,0,3-1.346,3-3s-1.346-3-3-3   s-3,1.346-3,3v1h-2v-1c0-1.654-1.346-3-3-3s-3,1.346-3,3s1.346,3,3,3h1v5h-0.355c-0.259-0.493-0.644-0.92-1.142-1.208   c-3.187-1.842-4.92-5.404-4.415-9.075c0.549-3.994,3.863-7.215,7.88-7.66C51.319,3.019,51.667,3,52.012,3   c2.221,0,4.317,0.796,5.989,2.293C59.907,6.999,61,9.444,61,12C61,15.195,59.279,18.179,56.507,19.786z M55,14v-1   c0-0.551,0.449-1,1-1s1,0.449,1,1s-0.449,1-1,1H55z"></path><path d="M39.29,48.1L29,46.17v-2.062c0.35-0.242,0.674-0.524,0.957-0.854l3.84-4.48c0.446-0.521,0.762-1.129,0.962-1.774H37   c1.103,0,2-0.897,2-2v-8c0-1.103-0.897-2-2-2h-2v-3c0-2.017-1.212-3.805-3.028-4.582C31.679,14.382,29.112,12,26,12   c-1.058,0-2.083,0.282-3,0.821C22.083,12.282,21.058,12,20,12c-3.112,0-5.679,2.382-5.972,5.418C12.212,18.195,11,19.983,11,22v3H9   c-1.103,0-2,0.897-2,2v8c0,1.103,0.897,2,2,2h2.241c0.201,0.645,0.516,1.253,0.962,1.774l3.84,4.479   c0.283,0.33,0.607,0.612,0.957,0.854v2.062L6.71,48.1C3.294,48.74,1,52.691,1,55.979V63h44v-8.021   C45,51.613,42.599,48.72,39.29,48.1z M27,46.52l-3,2.4V45h2.16c0.284,0,0.564-0.031,0.84-0.078V46.52z M17,31c0-0.551,0.449-1,1-1   s1,0.449,1,1s-0.449,1-1,1S17,31.551,17,31z M18.264,42.533L19.677,39h6.646l1.413,3.533C27.266,42.826,26.727,43,26.16,43h-6.32   C19.273,43,18.734,42.826,18.264,42.533z M28,32c-0.551,0-1-0.449-1-1s0.449-1,1-1s1,0.449,1,1S28.551,32,28,32z M37,27v8h-2v-8H37   z M15.261,19.106l0.769-0.196l-0.016-0.794c-0.001-0.06-0.007-0.118-0.012-0.118c0,0-0.001,0-0.001,0.001   c0-1.425,0.755-2.669,1.879-3.378L19,16.303v1.283l-1.707,1.707l1.414,1.414L20,19.414l1.293,1.293l1.414-1.414L21,17.586v-1.889   l-1.123-1.685C19.919,14.011,19.958,14,20,14c0.857,0,1.687,0.284,2.397,0.82L23,15.275l0.603-0.455C24.313,14.284,25.143,14,26,14   c0.561,0,1.095,0.119,1.58,0.327L26.465,16H24v2h2.279l0.772,2.316l1.897-0.633l-0.845-2.536l1.057-1.586   c0.519,0.664,0.841,1.481,0.843,2.365L29.97,18.91l0.769,0.196C32.07,19.446,33,20.636,33,22H13   C13,20.636,13.93,19.446,15.261,19.106z M9,27h2v8H9V27z M13.722,37.473C13.256,36.929,13,36.236,13,35.521V24h20v11.521   c0,0.715-0.256,1.409-0.722,1.952l-3.008,3.509l-1.231-3.077l0.808-4.041C30.087,33.495,31,32.358,31,31c0-1.654-1.346-3-3-3   s-3,1.346-3,3c0,1.239,0.755,2.304,1.828,2.761L26.18,37H19.82l-0.648-3.239C20.245,33.304,21,32.239,21,31c0-1.654-1.346-3-3-3   s-3,1.346-3,3c0,1.358,0.913,2.495,2.153,2.863l0.808,4.041l-1.231,3.078L13.722,37.473z M19.84,45H22v3.919l-3-2.4v-1.598   C19.276,44.969,19.555,45,19.84,45z M17.734,48.068L23,52.281l5.266-4.213L36,49.518V61H10V49.518L17.734,48.068z M3,55.979   c0-2.431,1.744-5.477,4.078-5.914L8,49.893V61H3V55.979z M43,61h-5V49.893l0.922,0.173C41.285,50.508,43,52.575,43,54.979V61z"></path><rect x="12" y="51" width="2" height="2"></rect><rect x="12" y="57" width="2" height="2"></rect><rect x="31" y="51" width="2" height="2"></rect><rect x="31" y="57" width="2" height="2"></rect><rect x="5" y="5" width="2" height="2"></rect><rect x="9" y="5" width="2" height="2"></rect><rect x="13" y="5" width="2" height="2"></rect><path d="M3,11h5.234L13,13.723V11h4c1.103,0,2-0.897,2-2V3c0-1.103-0.897-2-2-2H3C1.897,1,1,1.897,1,3v6C1,10.103,1.897,11,3,11z    M3,3h14v6h-6v1.277L8.766,9H3V3z"></path><rect x="41" y="33" width="2" height="2"></rect></g></svg>