<svg height='100px' width='100px'  fill="#000000" xmlns="http://www.w3.org/2000/svg" xmlns:xlink="http://www.w3.org/1999/xlink" version="1.1" x="0px" y="0px" viewBox="0.5 0.5 24 24" enable-background="new 0.5 0.5 24 24" xml:space="preserve"><g><path d="M6,11c0,0.277-0.224,0.5-0.5,0.5H3c-0.276,0-0.5,0.225-0.5,0.5c0,0.277,0.224,0.5,0.5,0.5h2.015l3-3H8H1   c-0.276,0-0.5,0.225-0.5,0.5c0,0.277,0.224,0.5,0.5,0.5h4.5C5.776,10.5,6,10.725,6,11z"></path><path d="M16.965,1.964l-2.071,2.071C15.275,4.596,15.5,5.272,15.5,6c0,1.086-0.508,2.045-1.286,2.688   c0.72,0.201,1.402,0.564,1.968,1.13c1.757,1.757,1.757,4.607,0,6.364c-1.756,1.757-4.607,1.757-6.363,0   c-1.757-1.757-1.757-4.607,0-6.364c0.121-0.121,0.258-0.213,0.389-0.318H9.429l-7.465,7.465l7.071,7.07l15-15L16.965,1.964z    M8,19.5c-0.829,0-1.5-0.671-1.5-1.5s0.671-1.5,1.5-1.5s1.5,0.671,1.5,1.5S8.828,19.5,8,19.5z M18,9.5c-0.829,0-1.5-0.671-1.5-1.5   s0.671-1.5,1.5-1.5s1.5,0.671,1.5,1.5S18.829,9.5,18,9.5z"></path><path d="M14.768,12.646c-0.585-0.585-1.536-0.585-2.121,0c-0.195,0.194-0.512,0.194-0.707,0c-0.195-0.195-0.195-0.512,0-0.707   l0.707-0.707c0.194-0.195,0.194-0.513,0-0.708c-0.195-0.194-0.512-0.194-0.707,0l-0.354,0.354l-0.354-0.354   c-0.195-0.194-0.513-0.194-0.707,0c-0.195,0.195-0.195,0.513,0,0.708l0.418,0.418c-0.264,0.557-0.171,1.243,0.289,1.703   c0.585,0.585,1.536,0.585,2.121,0c0.195-0.194,0.513-0.194,0.707,0c0.195,0.194,0.195,0.513,0,0.707l-0.707,0.707   c-0.194,0.195-0.194,0.513,0,0.707c0.195,0.195,0.513,0.195,0.707,0l0.354-0.354l0.354,0.354c0.195,0.195,0.513,0.195,0.707,0   c0.195-0.194,0.195-0.512,0-0.707l-0.418-0.418C15.321,13.792,15.228,13.106,14.768,12.646z"></path><path d="M4,4.5h4.5C8.776,4.5,9,4.725,9,5c0,0.277-0.224,0.5-0.5,0.5H6C5.724,5.5,5.5,5.725,5.5,6c0,0.277,0.224,0.5,0.5,0.5h3.5   C9.776,6.5,10,6.725,10,7c0,0.277-0.224,0.5-0.5,0.5H8C7.724,7.5,7.5,7.725,7.5,8c0,0.277,0.224,0.5,0.5,0.5h4   c1.381,0,2.5-1.119,2.5-2.5S13.381,3.5,12,3.5H4C3.724,3.5,3.5,3.725,3.5,4C3.5,4.277,3.724,4.5,4,4.5z"></path></g></svg>